<?xml version="1.0" encoding="UTF-8"?>
<svg width="18px" height="18px" viewBox="0 0 18 18" version="1.1" xmlns="http://www.w3.org/2000/svg">
    <g stroke="none" stroke-width="1" fill="none" fill-rule="evenodd">
        <path d="M17.64,9.20454545 C17.64,4.5 13.86,0.72 9.156,0.72 C4.452,0.72 0.672,4.5 0.672,9.20454545 C0.672,13.5 3.924,16.92 8.064,17.64 L8.064,12.24 L5.76,12.24 L5.76,9.20454545 L8.064,9.20454545 L8.064,6.84 C8.064,4.32 9.396,3.12 11.52,3.12 C12.6,3.12 13.716,3.36 13.716,3.36 L13.716,5.76 L12.492,5.76 C11.28,5.76 10.836,6.48 10.836,7.2 L10.836,9.20454545 L13.608,9.20454545 L13.284,12.24 L10.836,12.24 L10.836,17.64 C15.336,16.92 17.64,13.5 17.64,9.20454545" fill="#1877F2"></path>
    </g>
</svg> 