<?xml version="1.0" encoding="UTF-8"?>
<svg width="140" height="40" viewBox="0 0 120 40" fill="none" xmlns="http://www.w3.org/2000/svg">
  <path d="M20 8C13.3726 8 8 13.3726 8 20C8 26.6274 13.3726 32 20 32C26.6274 32 32 26.6274 32 20C32 13.3726 26.6274 8 20 8ZM20 30C14.4772 30 10 25.5228 10 20C10 14.4772 14.4772 10 20 10C25.5228 10 30 14.4772 30 20C30 25.5228 25.5228 30 20 30Z" fill="#0891B2"/>
  <path d="M20 12C16.6863 12 14 14.6863 14 18V22C14 25.3137 16.6863 28 20 28C23.3137 28 26 25.3137 26 22V18C26 14.6863 23.3137 12 20 12ZM24 22C24 24.2091 22.2091 26 20 26C17.7909 26 16 24.2091 16 22V18C16 15.7909 17.7909 14 20 14C22.2091 14 24 15.7909 24 18V22Z" fill="#0891B2"/>
  <text x="40" y="26" font-family="Arial" font-size="16" font-weight="bold" fill="#1F2937">Lost2Cause</text>
</svg> 